# File created by Blade
# Date/Time:  Tue Jan 27 19:05:11 2015
#---------------------------------------------------------
:version 1.10
:name HOM
:units
  mass 1.0
  length 1.000000
  angle deg
:documentation
     Acclaim Skeleton File
:root
   axis xyz
   order TX TY TZ RX RY RZ
   position 0.000000 0.000000 0.000000
   orientation 0 0 0
:bonedata
   begin
      id 1
      name Spine_dum
      direction 0.000000 1.000000 0.000000
      length 5.195262
      axis 0.0 0.0 0.0 xyz
   end
   begin
      id 2
      name LeftUpLeg_dum
      direction 1.000000 0.000000 0.000000
      length 3.351363
      axis 0.0 0.0 0.0 xyz
   end
   begin
      id 3
      name RightUpLeg_dum
      direction -1.000000 0.000000 0.000000
      length 3.351363
      axis 0.0 0.0 0.0 xyz
   end
   begin
      id 4
      name Spine
      direction 0.000000 1.000000 0.000000
      length 0.000000
      axis 0.0 0.0 0.0 xyz
      dof rx ry rz
   end
   begin
      id 5
      name Spine_dum1
      direction 0.000000 1.000000 0.000000
      length 15.653875
      axis 0.0 0.0 0.0 xyz
   end
   begin
      id 6
      name Spine_dum2
      direction 0.000000 1.000000 0.000000
      length 10.329768
      axis 0.0 0.0 0.0 xyz
   end
   begin
      id 7
      name Spine_dum3
      direction 0.000000 1.000000 0.000000
      length 10.329768
      axis 0.0 0.0 0.0 xyz
   end
   begin
      id 8
      name Head
      direction 0.000000 1.000000 0.000000
      length 4.527550
      axis 0.0 0.0 0.0 xyz
      dof rx ry rz
   end
   begin
      id 9
      name LeftShoulder
      direction 1.000000 0.000000 0.000000
      length 6.996006
      axis 0.0 0.0 -90.0 xyz
      dof rx ry rz
   end
   begin
      id 10
      name LeftArm
      direction 1.000000 0.000000 0.000000
      length 10.209302
      axis 0.0 0.0 -90.0 xyz
      dof rx ry rz
   end
   begin
      id 11
      name LeftForeArm
      direction 1.000000 0.000000 0.000000
      length 8.563163
      axis 0.0 0.0 -90.0 xyz
      dof ry rz rx
   end
   begin
      id 12
      name LeftHand
      direction 0.000000 0.000000 0.000000
      length 0.000000
      axis 0.0 0.0 -90.0 xyz
      dof rx ry rz
   end
   begin
      id 13
      name LeftHand_dum1
      direction 0.000000 0.000000 0.000000
      length 0.000000
      axis 0.0 0.0 -90.0 xyz
   end
   begin
      id 14
      name LeftHand_dum2
      direction 1.000000 0.000000 0.000000
      length 3.937000
      axis 0.0 0.0 -90.0 xyz
   end
   begin
      id 15
      name LeftHandThumb1
      direction 0.000000 0.000000 1.000000
      length 3.937000
      axis 0.0 0.0 -90.0 xyz
      dof rx rz ry
   end
   begin
      id 16
      name RightShoulder
      direction -1.000000 0.000000 0.000000
      length 6.996006
      axis 0.0 0.0 90.0 xyz
      dof rx ry rz
   end
   begin
      id 17
      name RightArm
      direction -1.000000 0.000000 0.000000
      length 10.209302
      axis 0.0 0.0 90.0 xyz
      dof rx ry rz
   end
   begin
      id 18
      name RightForeArm
      direction -1.000000 0.000000 0.000000
      length 8.563163
      axis 0.0 0.0 90.0 xyz
      dof ry rz rx
   end
   begin
      id 19
      name RightHand
      direction 0.000000 0.000000 0.000000
      length 0.000000
      axis 0.0 0.0 90.0 xyz
      dof rx ry rz
   end
   begin
      id 20
      name RightHand_dum1
      direction 0.000000 0.000000 0.000000
      length 0.000000
      axis 0.0 0.0 90.0 xyz
   end
   begin
      id 21
      name RightHand_dum2
      direction -1.000000 0.000000 0.000000
      length 3.937000
      axis 0.0 0.0 90.0 xyz
   end
   begin
      id 22
      name RightHandThumb1
      direction 0.000000 0.000000 1.000000
      length 3.937000
      axis 0.0 0.0 90.0 xyz
      dof rx rz ry
   end
   begin
      id 23
      name LeftUpLeg
      direction 0.000000 -1.000000 0.000000
      length 16.346831
      axis 0.0 0.0 0.0 xyz
      dof rx ry rz
   end
   begin
      id 24
      name LeftLeg
      direction 0.000000 -1.000000 0.000000
      length 13.959795
      axis 0.0 0.0 0.0 xyz
      dof rx ry rz
   end
   begin
      id 25
      name LeftFoot
      direction 0.000000 -0.258819 0.965926
      length 5.165550
      axis 15.0 0.0 0.0 xyz
      dof rx ry rz
   end
   begin
      id 26
      name LeftToeBase
      direction 0.000000 0.000000 1.000000
      length 2.952750
      axis 0.0 0.0 0.0 xyz
      dof rx ry rz
   end
   begin
      id 27
      name RightUpLeg
      direction 0.000000 -1.000000 0.000000
      length 16.346831
      axis 0.0 0.0 0.0 xyz
      dof rx ry rz
   end
   begin
      id 28
      name RightLeg
      direction 0.000000 -1.000000 0.000000
      length 13.959795
      axis 0.0 0.0 0.0 xyz
      dof rx ry rz
   end
   begin
      id 29
      name RightFoot
      direction 0.000000 -0.258819 0.965926
      length 5.165550
      axis 15.0 0.0 0.0 xyz
      dof rx ry rz
   end
   begin
      id 30
      name RightToeBase
      direction 0.000000 0.000000 1.000000
      length 2.952750
      axis 0.0 0.0 0.0 xyz
      dof rx ry rz
   end
:hierarchy
   begin
      root Spine_dum LeftUpLeg_dum RightUpLeg_dum
      Spine_dum Spine
      LeftUpLeg_dum LeftUpLeg
      RightUpLeg_dum RightUpLeg
      Spine Spine_dum1 Spine_dum2 Spine_dum3
      Spine_dum1 Head
      Spine_dum2 LeftShoulder
      Spine_dum3 RightShoulder
      LeftShoulder LeftArm
      LeftArm LeftForeArm
      LeftForeArm LeftHand
      LeftHand LeftHand_dum1 LeftHand_dum2
      LeftHand_dum1 LeftHandThumb1
      RightShoulder RightArm
      RightArm RightForeArm
      RightForeArm RightHand
      RightHand RightHand_dum1 RightHand_dum2
      RightHand_dum1 RightHandThumb1
      LeftUpLeg LeftLeg
      LeftLeg LeftFoot
      LeftFoot LeftToeBase
      RightUpLeg RightLeg
      RightLeg RightFoot
      RightFoot RightToeBase
   end

# File created by Blade
# Date/Time:  Tue Jan 27 19:05:02 2015
# Frame Rate: 120.000 fps
#------------------------------------------------------
:FULLY-SPECIFIED
:DEGREES
1476
root -2.331254 31.486504 -4.599977 3.551668 4.955579 -1.321667
Spine -3.501191 0.433714 -0.526453
Head 21.826126 -1.347784 2.923817
LeftShoulder -19.234716 16.963989 12.540110
LeftArm 11.641931 -43.751261 -70.337772
LeftForeArm -15.359439 -0.000000 87.946393
LeftHand -11.332905 -0.000000 17.930677
LeftHandThumb1 -26.253704 0.000000 33.147579
RightShoulder -10.585355 0.118580 -12.051293
RightArm 11.101334 -31.902468 79.311250
RightForeArm -23.883609 -0.000000 21.524861
RightHand -14.294357 -0.000000 9.421536
RightHandThumb1 -24.326973 -0.000000 -32.862282
LeftUpLeg -6.090558 -10.873215 -7.938662
LeftLeg 18.944668 -0.000000 -0.000000
LeftFoot -24.776943 21.996475 -10.447624
LeftToeBase 9.866788 -0.000000 -0.000000
RightUpLeg -21.903486 -40.957237 0.673540
RightLeg 97.446836 -0.000000 -0.000000
RightFoot -7.004977 0.156189 34.761784
RightToeBase 0.750086 -0.000000 -0.000000
1477
root -2.331207 31.490231 -4.611022 3.556271 5.049722 -1.330705
Spine -3.536613 0.427112 -0.561527
Head 21.917064 -1.397242 2.974057
LeftShoulder -19.166035 16.937097 12.607924
LeftArm 11.605235 -43.427807 -70.171686
LeftForeArm -15.391193 0.000000 88.003089
LeftHand -11.314075 -0.000000 17.930739
LeftHandThumb1 -26.253704 0.000000 33.147579
RightShoulder -10.622835 0.133228 -12.046738
RightArm 11.106985 -32.167190 79.401375
RightForeArm -23.885462 0.000000 21.046602
RightHand -14.111045 -0.000000 9.801626
RightHandThumb1 -24.326973 -0.000000 -32.862282
LeftUpLeg -6.086749 -11.027165 -7.916580
LeftLeg 18.886552 -0.000000 -0.000000
LeftFoot -24.741858 22.026483 -10.458178
LeftToeBase 9.942184 -0.000000 -0.000000
RightUpLeg -21.793296 -38.818500 0.425880
RightLeg 97.674666 -0.000000 -0.000000
RightFoot -5.350846 2.104237 35.104991
RightToeBase 2.124692 -0.000000 -0.000000
1478
root -2.329210 31.492698 -4.618002 3.525258 5.105585 -1.321869
Spine -3.541285 0.406440 -0.614638
Head 22.019445 -1.414308 3.033119
LeftShoulder -19.177917 16.990957 12.624907
LeftArm 11.775256 -43.170785 -70.132300
LeftForeArm -15.402130 -0.000000 88.007059
LeftHand -11.364649 0.000000 17.858912
LeftHandThumb1 -26.253704 0.000000 33.147579
RightShoulder -10.663095 0.205779 -12.050371
RightArm 11.072595 -32.398053 79.520884
RightForeArm -23.946864 -0.000000 20.575788
RightHand -14.001586 -0.000000 9.979741
RightHandThumb1 -24.326973 -0.000000 -32.862282
LeftUpLeg -6.031458 -11.257794 -7.931590
LeftLeg 18.815838 -0.000000 -0.000000
LeftFoot -24.720244 22.165745 -10.549148
LeftToeBase 9.898659 -0.000000 -0.000000
RightUpLeg -21.671925 -36.547208 0.137417
RightLeg 97.935872 -0.000000 -0.000000
RightFoot -4.046294 3.375084 35.007846
RightToeBase 2.224992 -0.000000 -0.000000
1479
root -2.329526 31.495908 -4.621975 3.459327 5.120644 -1.339428
Spine -3.515216 0.387939 -0.637614
Head 22.126165 -1.441078 3.090875
LeftShoulder -19.205988 17.033849 12.635616
LeftArm 11.795686 -42.856723 -69.981537
LeftForeArm -15.448417 -0.000000 88.022820
LeftHand -11.204367 0.000000 17.922735
LeftHandThumb1 -26.253704 0.000000 33.147579
RightShoulder -10.707599 0.235388 -12.040633
RightArm 11.114350 -32.707445 79.592841
RightForeArm -23.920826 0.000000 20.099426
RightHand -14.094856 -0.000000 9.792477
RightHandThumb1 -24.326973 -0.000000 -32.862282
LeftUpLeg -5.965191 -11.399567 -7.934118
LeftLeg 18.797820 -0.000000 -0.000000
LeftFoot -24.723582 22.320994 -10.622707
LeftToeBase 9.891334 -0.000000 -0.000000
RightUpLeg -21.513114 -34.149113 -0.137165
RightLeg 98.190194 -0.000000 -0.000000
RightFoot -2.952432 4.146072 34.918137
RightToeBase 2.715120 -0.000000 -0.000000
